<svg xmlns="http://www.w3.org/2000/svg" version="1.1" xmlns:xlink="http://www.w3.org/1999/xlink" xmlns:svgjs="http://svgjs.dev/svgjs" viewBox="0 0 800 800"><defs><symbol id="bbburst-shape-1" viewBox="0 0 194 167"><path d="m97 0 96.129 166.5H.871L97 0Z"></path></symbol><symbol id="bbburst-shape-3" viewBox="0 0 131 127"><path d="m66 0 66 63.5L66 127 0 63.5 66 0Z"></path></symbol><symbol id="bbburst-shape-6" viewBox="0 0 133 116"><path d="M59.7487 10.2513c-13.6683-13.66839-35.8291-13.66839-49.4974 0-13.66839 13.6683-13.66839 35.8291 0 49.4974l49.4974-49.4974ZM66.5 66.5 41.7513 91.2487 66.5 115.997l24.7487-24.7483L66.5 66.5Zm56.249-6.7513c13.668-13.6683 13.668-35.8291 0-49.4974-13.669-13.66839-35.8294-13.66839-49.4977 0l49.4977 49.4974Zm-112.4977 0 31.5 31.5 49.4974-49.4974-31.5-31.5-49.4974 49.4974Zm80.9974 31.5 31.5003-31.5-49.4977-49.4974-31.5 31.5 49.4974 49.4974Z"></path></symbol><symbol id="bbburst-shape-10" viewBox="0 0 145 145"><circle cx="72.5" cy="72.5" r="61.5" fill="none" stroke-width="22"></circle></symbol><symbol id="bbburst-shape-11" viewBox="0 0 194 167"><path d="M10.398 161 97 11l86.603 150H10.397Z" stroke-width="11"></path></symbol><symbol id="bbburst-shape-14" viewBox="0 0 185 109"><path d="M168 16.5C168 58.1975 134.197 92 92.5 92 50.8025 92 17 58.1975 17 16.5" stroke-width="33" stroke-linecap="round"></path></symbol></defs><use xlink:href="#bbburst-shape-3" width="17.94700662477599" opacity="0.8521553527585957" transform="matrix(0.8636744072388101,0.5040501148503888,-0.5040501148503888,0.8636744072388101,552.5665446608459,102.17578243740184)" fill="#ffa6d5"></use><use xlink:href="#bbburst-shape-11" width="43.33596759140556" opacity="0.07726386318845624" transform="matrix(0.7147018457316681,0.6994292471063438,-0.6994292471063438,0.7147018457316681,1010.7865244911126,-130.83560801700423)" fill="none" stroke="#ffa6d5"></use><use xlink:href="#bbburst-shape-10" width="49.318599468747834" opacity="0.36529886093721664" transform="matrix(0.9375845838358757,0.34775731214930283,-0.34775731214930283,0.9375845838358757,762.4774664560292,160.6702094079401)" fill="none" stroke="#ff5c58"></use><use xlink:href="#bbburst-shape-14" width="27.77200628384789" opacity="0.5932270083938573" transform="matrix(0.9587330857361136,-0.28430770357995916,0.28430770357995916,0.9587330857361136,453.53238127634296,-9.599355746320498)" fill="none" stroke="#ff5c58"></use><use xlink:href="#bbburst-shape-10" width="48.99065240611285" opacity="0.42551349249762327" transform="matrix(0.8500603681200711,0.5266852670728213,-0.5266852670728213,0.8500603681200711,437.7761866535272,-161.98312569269766)" fill="none" stroke="#00a19d"></use><use xlink:href="#bbburst-shape-6" width="24.69089197427521" opacity="0.6652606677997588" transform="matrix(0.9986412679107728,-0.05211159204595664,0.05211159204595664,0.9986412679107728,470.8329203257076,110.15002484760907)" fill="#00a19d"></use><use xlink:href="#bbburst-shape-10" width="32.36452814078313" opacity="0.5475149344395378" transform="matrix(0.8842362741357448,0.467039839309813,-0.467039839309813,0.8842362741357448,749.7560069728681,138.96344486594063)" fill="none" stroke="#ff5c58"></use><use xlink:href="#bbburst-shape-10" width="25.415185706699496" opacity="0.7506566318086438" transform="matrix(0.9647493649327443,-0.26317040650853313,0.26317040650853313,0.9647493649327443,251.94456090070736,125.41634994543438)" fill="none" stroke="#ff5c58"></use><use xlink:href="#bbburst-shape-11" width="47.496857790327184" opacity="0.11487901824355651" transform="matrix(0.9885699535362048,-0.15076288324858333,0.15076288324858333,0.9885699535362048,126.568784416445,-342.75916775462696)" fill="none" stroke="#2c2891"></use><use xlink:href="#bbburst-shape-10" width="19.717998710364242" opacity="0.9726689705242436" transform="matrix(0.8857400348580714,-0.4641816354075445,0.4641816354075445,0.8857400348580714,208.8307354275649,38.41472283995978)" fill="none" stroke="#00a19d"></use><use xlink:href="#bbburst-shape-10" width="23.431559203160006" opacity="0.7479000300732759" transform="matrix(0.9600616575723332,-0.2797885159535037,0.2797885159535037,0.9600616575723332,349.26460480621773,-68.06204224933049)" fill="none" stroke="#ffa6d5"></use><use xlink:href="#bbburst-shape-3" width="36.99933153741135" opacity="0.1212737510515397" transform="matrix(0.7141868094267066,0.6999551423062059,-0.6999551423062059,0.7141868094267066,824.5490585814687,-261.2638928956921)" fill="#2c2891"></use><use xlink:href="#bbburst-shape-6" width="41.54792215115932" opacity="0.5822968960445738" transform="matrix(0.9671136818569367,-0.25434450331218067,0.25434450331218067,0.9671136818569367,429.17517302123287,-93.49548074136885)" fill="#2c2891"></use><use xlink:href="#bbburst-shape-10" width="53.492656619104864" opacity="0.2209894989335135" transform="matrix(0.9705448691926494,0.24092043683304046,-0.24092043683304046,0.9705448691926494,219.7271174539896,-239.70632750637347)" fill="none" stroke="#ff5c58"></use><use xlink:href="#bbburst-shape-11" width="27.479085208582923" opacity="0.8163118917220125" transform="matrix(0.9912042653004429,0.13234086462695155,-0.13234086462695155,0.9912042653004429,470.4564175947794,77.93821721231859)" fill="none" stroke="#ff5c58"></use><use xlink:href="#bbburst-shape-6" width="38.722820000421116" opacity="0.5477719949509082" transform="matrix(0.9339944193497165,-0.357287593716303,0.357287593716303,0.9339944193497165,63.29953394140588,-69.35431259340817)" fill="#ffa6d5"></use><use xlink:href="#bbburst-shape-10" width="19.803172156986214" opacity="0.7734090886057482" transform="matrix(0.9523329758267142,-0.30506049097356924,0.30506049097356924,0.9523329758267142,359.0961892935197,68.9674883066777)" fill="none" stroke="#00a19d"></use><use xlink:href="#bbburst-shape-10" width="30.10472675767681" opacity="0.2887017073505719" transform="matrix(0.9918944808074083,0.1270643102676826,-0.1270643102676826,0.9918944808074083,278.76241060357563,280.1900368597583)" fill="none" stroke="#ffbd9b"></use><use xlink:href="#bbburst-shape-11" width="23.74414676534684" opacity="0.8862336853542622" transform="matrix(0.9906604286045441,-0.13635217342257924,0.13635217342257924,0.9906604286045441,286.55313601006634,-15.003709992716551)" fill="none" stroke="#00a19d"></use><use xlink:href="#bbburst-shape-10" width="28.051725682737903" opacity="0.7859600480689779" transform="matrix(0.9976093918127292,0.06910500247475865,-0.06910500247475865,0.9976093918127292,363.7515295426027,-82.39827454086753)" fill="none" stroke="#00a19d"></use><use xlink:href="#bbburst-shape-6" width="21.925362673449605" opacity="0.7351476014743498" transform="matrix(0.8052769013982796,0.5928989054420539,-0.5928989054420539,0.8052769013982796,628.6423686676466,-47.79349990500276)" fill="#2c2891"></use><use xlink:href="#bbburst-shape-6" width="28.732645599659342" opacity="0.4495610529244768" transform="matrix(0.7403680309386574,0.6722017396317977,-0.6722017396317977,0.7403680309386574,675.4560529844105,-152.90282386145023)" fill="#2c2891"></use><use xlink:href="#bbburst-shape-3" width="33.02029047605128" opacity="0.6046860273400309" transform="matrix(0.9988273723013517,-0.048413637970896005,0.048413637970896005,0.9988273723013517,257.52836764779033,143.77111764439894)" fill="#00a19d"></use><use xlink:href="#bbburst-shape-10" width="17.95884954847495" opacity="0.877105329332196" transform="matrix(0.9524341838266638,0.3047443608640474,-0.3047443608640474,0.9524341838266638,566.423182634592,31.818270067002345)" fill="none" stroke="#ff5c58"></use><use xlink:href="#bbburst-shape-11" width="44.51024480336592" opacity="0.17228346960589858" transform="matrix(0.9806572919070284,0.19573266418657184,-0.19573266418657184,0.9806572919070284,689.577469535004,-287.78119016076687)" fill="none" stroke="#ff5c58"></use><use xlink:href="#bbburst-shape-3" width="30.139073910522526" opacity="0.09210142350855988" transform="matrix(0.7623582618434063,0.6471552214106755,-0.6471552214106755,0.7623582618434063,448.4262118725282,442.12130391816027)" fill="#00a19d"></use><use xlink:href="#bbburst-shape-6" width="40.892145306801645" opacity="0.21961310038415416" transform="matrix(0.7995961917083163,-0.6005380339375329,0.6005380339375329,0.7995961917083163,-207.48153009046652,79.03118639154718)" fill="#ffa6d5"></use><use xlink:href="#bbburst-shape-6" width="40.77498756775262" opacity="0.09451523225450265" transform="matrix(0.8331058349026504,-0.5531136120646081,0.5531136120646081,0.8331058349026504,365.3660656073307,430.9919970777197)" fill="#ff5c58"></use><use xlink:href="#bbburst-shape-1" width="31.096815588563747" opacity="0.5532426122828833" transform="matrix(0.7141213453421476,0.700021931175532,-0.700021931175532,0.7141213453421476,485.1285395961331,185.06681140283712)" fill="#00a19d"></use><use xlink:href="#bbburst-shape-11" width="47.280759255857205" opacity="0.4088947981107294" transform="matrix(0.9953141034352091,-0.09669454743141341,0.09669454743141341,0.9953141034352091,144.72857124619634,186.59375028787315)" fill="none" stroke="#ff5c58"></use><use xlink:href="#bbburst-shape-6" width="35.62909623039666" opacity="0.34937560928660527" transform="matrix(0.9999799952592138,0.006325273225942154,-0.006325273225942154,0.9999799952592138,108.92632803641446,98.18512050537055)" fill="#ffa6d5"></use><use xlink:href="#bbburst-shape-3" width="38.20729060106003" opacity="0.4599288678076938" transform="matrix(0.9012235111910769,-0.433354569465267,0.433354569465267,0.9012235111910769,240.92645947112595,288.81916892552334)" fill="#ffa6d5"></use><use xlink:href="#bbburst-shape-11" width="30.28366099201058" opacity="0.626388424246374" transform="matrix(0.8826518468008236,0.47002735807513935,-0.47002735807513935,0.8826518468008236,480.44425894695945,-99.65361308369967)" fill="none" stroke="#00a19d"></use><use xlink:href="#bbburst-shape-10" width="33.08530434920431" opacity="0.5699981718381277" transform="matrix(0.9080325642205214,-0.4188995850023066,0.4188995850023066,0.9080325642205214,179.47945133375066,-146.0283048989585)" fill="none" stroke="#ffbd9b"></use><use xlink:href="#bbburst-shape-3" width="35.617943595454726" opacity="0.3228915638623705" transform="matrix(0.9041970951518876,-0.42711545642705134,0.42711545642705134,0.9041970951518876,122.348760206273,-244.93821965826845)" fill="#ffbd9b"></use><use xlink:href="#bbburst-shape-14" width="17.765729440023172" opacity="0.866503137926467" transform="matrix(0.9122400047084682,0.4096561653502775,-0.4096561653502775,0.9122400047084682,560.8739558628909,-28.36763521084947)" fill="none" stroke="#00a19d"></use><use xlink:href="#bbburst-shape-3" width="50.37340326142382" opacity="0.2166926202676448" transform="matrix(0.7605214141891408,-0.6493128510662247,0.6493128510662247,0.7605214141891408,465.34439467669154,187.48184088301002)" fill="#00a19d"></use><use xlink:href="#bbburst-shape-10" width="38.802296878143494" opacity="0.6430180933077038" transform="matrix(0.858052447224023,0.5135620681211427,-0.5135620681211427,0.858052447224023,428.1879273040688,42.72197722030603)" fill="none" stroke="#ffbd9b"></use><use xlink:href="#bbburst-shape-3" width="36.92030965325661" opacity="0.43426789148263323" transform="matrix(0.9802970342629879,-0.197529047522612,0.197529047522612,0.9802970342629879,555.9206172923334,38.33716549320127)" fill="#ffa6d5"></use><use xlink:href="#bbburst-shape-10" width="37.487431005916235" opacity="0.3558334612467312" transform="matrix(0.9979818430432278,-0.06349992878769495,0.06349992878769495,0.9979818430432278,93.1852972428534,-120.52412825225446)" fill="none" stroke="#00a19d"></use><use xlink:href="#bbburst-shape-11" width="37.09158625421992" opacity="0.12699246827966992" transform="matrix(0.954920163316945,0.29686273206776753,-0.29686273206776753,0.954920163316945,147.96549281017565,-159.9046093511093)" fill="none" stroke="#ffa6d5"></use><use xlink:href="#bbburst-shape-11" width="17.115763064890366" opacity="0.8656500427561841" transform="matrix(0.7375430317181886,-0.675300137986024,0.675300137986024,0.7375430317181886,173.9876299090988,77.46407598068174)" fill="none" stroke="#2c2891"></use><use xlink:href="#bbburst-shape-10" width="33.81979124480793" opacity="0.16300772017752096" transform="matrix(0.8223079556851848,0.569042727760273,-0.569042727760273,0.8223079556851848,894.0873265995014,312.954369750894)" fill="none" stroke="#2c2891"></use><use xlink:href="#bbburst-shape-1" width="47.23784975817675" opacity="0.21682039366867378" transform="matrix(0.9853821086096792,0.17035873922972763,-0.17035873922972763,0.9853821086096792,795.8201066989504,-30.274114086401198)" fill="#ffa6d5"></use><use xlink:href="#bbburst-shape-3" width="45.02359266475001" opacity="0.3171005156097054" transform="matrix(0.9427616421156779,0.33346736895137197,-0.33346736895137197,0.9427616421156779,693.8650563182593,263.04448526065016)" fill="#2c2891"></use><use xlink:href="#bbburst-shape-6" width="39.724822776994955" opacity="0.17047667901633645" transform="matrix(0.9563942325232787,0.29207887975033164,-0.29207887975033164,0.9563942325232787,211.75283218807778,251.4308112977668)" fill="#ffbd9b"></use><use xlink:href="#bbburst-shape-11" width="40.35931313526193" opacity="-0.06073390803765388" transform="matrix(0.8937575458986776,-0.4485503864106832,0.4485503864106832,0.8937575458986776,-138.98923968739504,384.78784776106403)" fill="none" stroke="#00a19d"></use><use xlink:href="#bbburst-shape-11" width="30.959517258166763" opacity="0.45659203820258765" transform="matrix(0.9398806256141122,-0.3415031619110209,0.3415031619110209,0.9398806256141122,378.71681386927673,-178.15380287381632)" fill="none" stroke="#00a19d"></use><use xlink:href="#bbburst-shape-1" width="43.04294397546812" opacity="-0.04954550706129113" transform="matrix(0.9983426194334352,-0.05755010184862693,0.05755010184862693,0.9983426194334352,17.999691713273933,-328.4343207067474)" fill="#00a19d"></use><use xlink:href="#bbburst-shape-10" width="22.73404557286859" opacity="0.7472061065097333" transform="matrix(0.9890609383883656,-0.1475074918582974,0.1475074918582974,0.9890609383883656,439.21938450047776,-24.901049843912915)" fill="none" stroke="#2c2891"></use><use xlink:href="#bbburst-shape-3" width="25.468282466594374" opacity="0.18695063716799865" transform="matrix(0.910491189294059,0.41352846844913843,-0.41352846844913843,0.910491189294059,547.4224062324245,396.3152594362902)" fill="#00a19d"></use><use xlink:href="#bbburst-shape-14" width="53.067468202439564" opacity="-0.06780709759770787" transform="matrix(0.9416108668237395,0.33670309692583145,-0.33670309692583145,0.9416108668237395,849.9972924662909,353.7119230008427)" fill="none" stroke="#ffbd9b"></use><use xlink:href="#bbburst-shape-6" width="22.217750167894373" opacity="0.7981186673201665" transform="matrix(0.9986820185198694,0.05132471027759808,-0.05132471027759808,0.9986820185198694,319.3251683505378,11.498857755081872)" fill="#2c2891"></use><use xlink:href="#bbburst-shape-3" width="36.568457644074215" opacity="-0.06813857158069303" transform="matrix(0.8993513374289125,-0.43722668247126273,0.43722668247126273,0.8993513374289125,540.3061586359186,-299.48887481393484)" fill="#00a19d"></use><use xlink:href="#bbburst-shape-11" width="44.3421368494283" opacity="0.24409331677665436" transform="matrix(0.9267735664240575,0.3756204954174266,-0.3756204954174266,0.9267735664240575,622.0954974266235,347.8629006467268)" fill="none" stroke="#ffa6d5"></use><use xlink:href="#bbburst-shape-6" width="28.89914539579522" opacity="0.6154263700733567" transform="matrix(0.9160939425321547,0.40096369967354045,-0.40096369967354045,0.9160939425321547,529.1637584285822,199.89007604728346)" fill="#ffa6d5"></use><use xlink:href="#bbburst-shape-6" width="48.16785565068521" opacity="0.13464687935018038" transform="matrix(0.8962928860623924,0.44346258285671314,-0.44346258285671314,0.8962928860623924,196.26903703920487,180.39521329661642)" fill="#ffa6d5"></use><use xlink:href="#bbburst-shape-3" width="23.867082554267952" opacity="0.7244260360776817" transform="matrix(0.9693737305122511,0.24559024938454202,-0.24559024938454202,0.9693737305122511,377.5588857302645,-49.80008310592717)" fill="#2c2891"></use><use xlink:href="#bbburst-shape-6" width="39.23326959535507" opacity="0.4778616036045137" transform="matrix(0.7500029498287838,0.6614344829596676,-0.6614344829596676,0.7500029498287838,568.6287133204934,307.49761429246144)" fill="#00a19d"></use><use xlink:href="#bbburst-shape-10" width="24.40489408094916" opacity="0.7178025097102649" transform="matrix(0.8553968335788168,0.51797322044999,-0.51797322044999,0.8553968335788168,491.75385315930964,122.9468982384094)" fill="none" stroke="#ff5c58"></use><use xlink:href="#bbburst-shape-3" width="14.586326566263653" opacity="0.9341416634548929" transform="matrix(0.8892719452312703,0.4573788445310874,-0.4573788445310874,0.8892719452312703,575.499055589268,70.5520694135293)" fill="#2c2891"></use><use xlink:href="#bbburst-shape-10" width="31.767462759598178" opacity="0.6242343222674733" transform="matrix(0.9850266685510753,-0.1724020366560963,0.1724020366560963,0.9850266685510753,376.0260176164872,-149.12233576625053)" fill="none" stroke="#ff5c58"></use><use xlink:href="#bbburst-shape-1" width="32.41561792276378" opacity="0.10370331409065514" transform="matrix(0.995994542166285,-0.08941404797330324,0.08941404797330324,0.995994542166285,704.2289550974943,192.4252132379741)" fill="#2c2891"></use><use xlink:href="#bbburst-shape-11" width="28.336488581042005" opacity="0.30508851785384916" transform="matrix(0.9928451258266316,0.11940919613790227,-0.11940919613790227,0.9928451258266316,525.6970116959454,-298.0763916964923)" fill="none" stroke="#ff5c58"></use><use xlink:href="#bbburst-shape-6" width="33.51921405588031" opacity="0.49691505664012237" transform="matrix(0.7495193596354444,0.661982423884255,-0.661982423884255,0.7495193596354444,774.5519897042748,279.5952680369336)" fill="#ffa6d5"></use><use xlink:href="#bbburst-shape-10" width="36.376728827622415" opacity="0.4500273645487821" transform="matrix(0.7975639683654426,-0.603234379296445,0.603234379296445,0.7975639683654426,-102.99640839194757,79.93949075411012)" fill="none" stroke="#2c2891"></use><use xlink:href="#bbburst-shape-10" width="33.191593050938415" opacity="0.660247722760306" transform="matrix(0.7205180373802049,0.6934361959183971,-0.6934361959183971,0.7205180373802049,712.8995940838608,245.61289216661288)" fill="none" stroke="#2c2891"></use><use xlink:href="#bbburst-shape-6" width="37.52460276093093" opacity="0.42666893820056917" transform="matrix(0.9990679370999086,0.04316546141225742,-0.04316546141225742,0.9990679370999086,643.960920902728,-79.9532509250833)" fill="#2c2891"></use><use xlink:href="#bbburst-shape-6" width="26.782303137628446" opacity="0.28713797504802197" transform="matrix(0.9530143544769695,0.30292513953260003,-0.30292513953260003,0.9530143544769695,446.1059361464153,329.4177686044525)" fill="#2c2891"></use><use xlink:href="#bbburst-shape-3" width="37.391532024914326" opacity="0.20280479327152245" transform="matrix(0.999604783523213,-0.02811186150916399,0.02811186150916399,0.999604783523213,355.81968968825555,-357.7727898650117)" fill="#2c2891"></use><use xlink:href="#bbburst-shape-3" width="39.72799109134038" opacity="0.3480964841688228" transform="matrix(0.9050628847446133,-0.42527776177194937,0.42527776177194937,0.9050628847446133,439.0778866035843,-138.9605157830433)" fill="#ffa6d5"></use><use xlink:href="#bbburst-shape-11" width="24.158656738674054" opacity="0.654403346110971" transform="matrix(0.986510821770762,-0.16369605532564246,0.16369605532564246,0.986510821770762,474.7621326121377,38.983858166168545)" fill="none" stroke="#ffa6d5"></use><use xlink:href="#bbburst-shape-10" width="33.91554714779685" opacity="0.2032380786188196" transform="matrix(0.9820469801998285,0.18863649880232006,-0.18863649880232006,0.9820469801998285,793.1985418165083,-125.36777380946626)" fill="none" stroke="#00a19d"></use></svg>